<svg width="339" height="64" viewBox="0 0 339 64" fill="none" xmlns="http://www.w3.org/2000/svg">
<path d="M10.6125 21.9371H7.46095L0 0.486131H4.43942L9.23177 15.0861L14.473 0.294189H16.7887L21.742 15.0892L26.8873 0.486131H31.3267L23.3828 21.9371H20.2313L15.5349 8.33406L10.6156 21.9371H10.6125Z" fill="#312F2E"/>
<path d="M51.8457 4.08654H44.1278V8.87888H51.5237V12.4793H44.1278V18.3335H51.8457V21.9371H39.9453V0.486084H51.8457V4.08654Z" fill="#312F2E"/>
<path d="M66.4611 0.486084V18.3335H73.0862V21.9371H62.2817V0.486084H66.4611Z" fill="#312F2E"/>
<path d="M85.9992 0.486084V18.3335H92.6243V21.9371H81.8198V0.486084H85.9992Z" fill="#312F2E"/>
<path d="M137.743 11.2287C137.743 17.7578 133.047 22.4201 126.295 22.4201C119.543 22.4201 114.846 17.7578 114.846 11.2287C114.846 4.69955 119.539 0.00317383 126.295 0.00317383C133.05 0.00317383 137.743 4.69955 137.743 11.2287ZM133.434 11.2287C133.434 6.8883 130.474 3.79866 126.295 3.79866C122.115 3.79866 119.156 6.88521 119.156 11.2287C119.156 15.5721 122.115 18.6246 126.295 18.6246C130.474 18.6246 133.434 15.569 133.434 11.2287Z" fill="#312F2E"/>
<path d="M153.912 0.486084C156.872 0.486084 158.383 1.25695 159.38 2.09282C161.02 3.47666 161.503 5.30939 161.503 6.91613C161.503 9.00581 160.667 10.8385 158.996 11.9654C158.448 12.3524 157.677 12.7053 156.649 12.8973L163.339 21.934H158.129L152.405 13.3152H151.891V21.934H147.711V0.486084H153.919H153.912ZM151.885 10.3587H153.073C153.878 10.3587 157.191 10.2627 157.191 7.11116C157.191 3.95961 153.912 3.89459 153.138 3.89459H151.885V10.3587Z" fill="#312F2E"/>
<path d="M182.453 10.4546H192.294V10.7116C192.294 12.1573 192.102 16.6618 189.143 19.5873C186.923 21.807 184.189 22.4169 181.521 22.4169C178.852 22.4169 176.085 21.8689 173.738 19.5223C172.998 18.7824 170.552 16.0828 170.552 11.2564C170.552 7.10803 172.419 4.56635 173.704 3.28158C175.311 1.64079 178.013 0 182.162 0C183.768 0 185.474 0.256954 187.115 1.12688C188.499 1.83583 190.01 3.1206 191.133 5.0493L187.499 7.01206C186.759 5.56321 185.666 4.8264 184.991 4.47038C184.09 4.02148 182.967 3.79549 181.97 3.79549C180.264 3.79549 178.335 4.40537 177.016 5.69323C175.793 6.88203 174.862 8.94076 174.862 11.3524C174.862 14.213 176.085 15.9188 176.985 16.7887C177.951 17.7205 179.462 18.6214 181.747 18.6214C183.162 18.6214 184.768 18.2344 185.96 17.3336C186.796 16.6896 187.632 15.5968 187.988 14.052H182.456V10.4484L182.453 10.4546Z" fill="#312F2E"/>
<path d="M213.78 17.4327H205.13L203.232 21.934H198.697L207.929 0.486084H211.21L220.182 21.9371H215.681L213.783 17.4358L213.78 17.4327ZM212.557 14.0242L209.501 6.30625L206.446 14.0242H212.557Z" fill="#312F2E"/>
<path d="M228.77 21.9371V0.486084H231.664L244.722 14.7981V0.486084H248.902V21.9371H246.007L232.949 7.59411V21.9371H228.77Z" fill="#312F2E"/>
<path d="M264.127 0.486084V21.9371H259.948V0.486084H264.127Z" fill="#312F2E"/>
<path d="M285.38 5.37444C284.126 3.70269 282.646 3.54171 281.875 3.54171C279.625 3.54171 278.916 4.9565 278.916 6.04933C278.916 6.56324 279.077 7.04619 279.591 7.49509C280.105 7.97804 280.814 8.23499 282.163 8.71794C283.835 9.29686 285.411 9.87578 286.504 10.8726C287.47 11.7395 288.336 13.1883 288.336 15.374C288.336 19.5533 285.312 22.417 280.875 22.417C276.919 22.417 274.603 20.0053 273.479 18.3645L276.213 15.761C277.241 17.8506 279.204 18.6246 280.714 18.6246C282.612 18.6246 284.027 17.4668 284.027 15.665C284.027 14.8941 283.77 14.2811 283.191 13.7363C282.386 12.9964 281.101 12.5784 279.879 12.1605C278.752 11.7735 277.402 11.2596 276.309 10.2937C275.6 9.68384 274.603 8.49194 274.603 6.30629C274.603 3.15473 276.727 0.00317383 281.485 0.00317383C282.835 0.00317383 285.377 0.260128 287.562 2.5108L285.377 5.37444H285.38Z" fill="#312F2E"/>
<path d="M310.004 4.08654H302.286V8.87888H309.682V12.4793H302.286V18.3335H310.004V21.9371H298.104V0.486084H310.004V4.08654Z" fill="#312F2E"/>
<path d="M326.034 0.486084C329.025 0.486084 331.628 0.808051 334.009 2.57577C336.613 4.53853 338.127 7.65603 338.127 11.2255C338.127 14.795 336.647 17.8816 333.817 19.8753C331.31 21.643 328.96 21.934 325.969 21.934H320.437V0.486084H326.034ZM324.619 18.3336H325.907C326.969 18.3336 329.285 18.2685 331.149 16.9188C332.854 15.6959 333.817 13.5102 333.817 11.2255C333.817 8.9408 332.885 6.7861 331.18 5.50133C329.443 4.21347 327.319 4.08654 325.904 4.08654H324.616V18.3336H324.619Z" fill="#312F2E"/>
<path d="M3.25286 52.7959C3.08162 52.7674 2.96338 52.6247 2.96338 52.4779C2.96338 52.3638 3.25286 52.2781 3.2814 52.2781C3.4241 52.1925 3.48118 52.1069 3.54233 52.1069C3.83181 52.0784 4.06013 51.9642 4.14983 51.8745C4.17837 51.8174 4.66763 51.5565 5.07127 51.4138C5.33221 51.2996 5.67469 51.0958 6.8856 50.4924C7.17508 50.1743 8.26776 47.6954 8.50016 47.6954C8.64286 47.6954 8.6714 47.3774 8.72848 47.092C8.75702 46.8881 9.93939 45.1594 10.1432 45.1024C10.4042 45.0738 10.5469 44.6416 10.7181 44.3522C10.9179 44.1198 11.4969 43.5163 11.5825 43.4593C11.7252 43.3736 11.8149 42.97 12.2756 42.5949C12.7363 42.2483 13.4865 41.3269 13.776 41.1842C14.094 41.013 14.6404 40.434 14.9584 40.2342C15.362 39.9733 15.4762 39.9733 15.7371 39.8306C15.998 39.6594 16.9195 39.166 17.2946 39.166C17.6697 39.166 18.3913 39.3658 18.5626 39.7409C18.5911 39.8551 18.6197 40.0018 18.6197 40.1731C18.6197 40.6053 18.5055 41.1231 18.2446 41.384C17.9551 41.7591 17.6126 42.391 17.3802 42.5093C17.1193 42.6234 17.2375 42.7417 16.9766 43.0271C16.6871 43.3451 16.7768 43.4307 16.5444 43.5734C16.3446 43.7447 16.1407 44.0056 15.941 44.1198C15.7983 44.2339 15.8839 44.4378 15.7371 44.5805C15.1908 45.0697 14.8157 45.3878 14.7015 45.6202C14.5873 45.7629 14.0084 46.3418 13.6659 46.5701C13.2908 46.8025 13.0584 47.0023 12.8586 47.2918C12.8301 47.4059 12.137 47.8381 11.8516 48.1847C11.5906 48.5312 10.9587 48.731 10.7263 48.992C10.4939 49.2244 9.94755 49.5668 9.54391 49.7707C9.11173 50.8063 9.02611 51.2996 8.79371 52.0172C8.47569 52.7959 8.47569 53.114 8.47569 53.3994C8.47569 53.6032 8.39007 53.7174 8.39007 53.8601C8.39007 53.9457 8.41861 54.0313 8.47569 54.1496C8.61839 54.6388 8.53277 54.7244 8.76517 54.9568C8.90787 55.1281 9.08319 55.2749 9.36859 55.2749C9.65399 55.2749 9.74369 55.1892 10.0332 55.1892C10.3226 55.1322 10.6121 55.1036 10.8404 54.8712C11.0728 54.6103 11.3868 54.4105 11.819 53.9783C11.9331 53.8927 12.0799 53.6888 12.1941 53.4891C11.7619 53.3749 11.3012 52.9427 10.9831 52.5962C10.6937 52.2211 10.4083 51.6176 10.4083 51.0958C10.4083 50.896 10.4368 50.7207 10.551 50.5494C10.7834 50.1743 11.6192 49.7422 12.1084 49.7136C12.4265 49.6851 12.7119 49.5995 12.9728 49.5995C13.087 49.5995 13.2052 49.628 13.2908 49.6851C13.4906 49.8278 13.7515 50.26 13.7801 50.5209C13.8372 50.896 13.9228 51.3282 13.9228 51.6747C13.9228 51.9642 13.6618 52.6532 13.405 53.0854C13.6048 53.2852 14.2123 53.3749 14.9339 53.3749C15.1337 53.3749 15.3661 53.3464 15.5985 53.3464C15.945 53.3178 16.2345 53.3178 16.577 53.1751C17.0092 53.061 17.0948 52.9753 17.1845 52.9753C17.792 52.8326 18.163 52.6002 18.5667 52.4861C18.7379 52.4005 18.9418 52.2537 19.1701 52.2537C19.2557 52.2537 19.3413 52.2822 19.431 52.3393C19.4881 52.3964 19.5166 52.4249 19.5166 52.482C19.5166 52.6532 19.1701 52.8 18.8806 52.9142C18.534 53.0854 17.9877 53.3178 17.1519 53.5502C16.8053 53.6358 16.259 53.8682 16.0266 53.8682C15.8553 53.8682 15.362 53.9539 15.0481 53.9539C14.7015 53.9539 13.7515 53.9253 13.6333 53.9253C13.4906 53.9253 13.2297 53.8682 12.9116 53.7826C12.6222 54.2433 12.2756 54.7041 12.1044 54.8223C11.8434 54.9935 11.7863 54.9365 11.5295 55.1974C11.2971 55.4869 10.4327 56.0332 10.0291 56.1474C9.65399 56.233 9.25035 56.3471 8.87525 56.3471C8.58578 56.3186 7.55018 56.0006 7.03238 55.597C6.54312 55.1648 6.28218 54.6184 6.16802 53.9253C6.13948 53.8112 6.13948 53.6644 6.13948 53.5502C6.13948 53.0324 6.28218 52.5717 6.33926 52.1069C6.45342 51.7318 6.62874 51.3282 6.62874 51.2996C6.19656 51.5606 5.53199 51.8174 5.36075 51.8745C5.21805 51.9031 4.43931 52.3067 4.23545 52.3923C4.06421 52.5065 3.80327 52.5962 3.57088 52.6818C3.54234 52.7103 3.37109 52.7959 3.25286 52.7959ZM9.93939 48.7025C9.93939 48.7025 11.8434 47.4345 12.1614 47.2021C12.4795 46.9412 12.6222 46.7128 12.7649 46.509C12.9076 46.3377 13.4865 45.9912 13.7148 45.8159C13.9187 45.6161 14.6363 44.662 14.6934 44.6049C14.8361 44.5479 14.9543 44.4622 15.097 44.2298C15.2682 44.026 15.3865 43.9974 15.4436 43.9118C16.5403 42.5867 17.2293 41.5471 17.3761 41.3473C17.5474 41.0578 17.5474 40.9722 17.5474 40.7439C17.5474 40.5726 17.4047 40.4259 17.2293 40.4259C17.054 40.4259 16.7401 40.4544 16.4506 40.801C16.1041 41.0904 15.6148 41.4655 15.3539 41.7795C15.0358 42.0404 14.9502 42.2117 14.779 42.4726C14.6363 42.7335 14.3753 42.8477 14.2612 42.9333C13.4254 43.5979 12.4754 45.241 12.0147 45.7302C11.5825 46.191 11.2074 46.4804 11.0361 46.7985C10.7752 47.0879 10.3716 47.8381 10.1432 48.2377C10.0576 48.3518 10.0005 48.5272 9.93939 48.6984V48.7025ZM12.7363 52.6818C12.8505 52.4779 12.9361 52.1069 12.9973 51.8174C12.9973 51.4138 12.9973 50.9245 12.8546 50.7207C12.7689 50.4883 12.7689 50.2314 12.3653 50.2314C12.0758 50.2314 11.9902 50.5494 11.9902 50.896C11.9902 51.1284 12.1044 51.3282 12.1044 51.5606C12.1614 51.9642 12.19 52.1681 12.508 52.4535C12.5651 52.5676 12.6792 52.6247 12.7404 52.6859L12.7363 52.6818Z" fill="#312F2E"/>
<path d="M37.2073 54.1781C37.4968 54.0354 37.7536 54.0354 38.0717 53.803C38.2144 53.6318 38.9075 53.4565 39.1073 53.3423C39.25 53.1996 39.3967 53.1996 39.5965 53.1099C39.7963 53.0202 39.6251 53.0528 40.0572 52.849C40.1714 52.7919 40.4038 52.7063 40.4609 52.6492C40.5465 52.6207 40.7218 52.535 40.8645 52.4168C40.9501 52.3597 41.1255 52.2741 41.2682 52.2741C41.3538 52.2741 41.4394 52.3026 41.5006 52.3597C41.5576 52.4453 41.5862 52.5024 41.5862 52.5595C41.5862 52.6737 41.5006 52.7307 41.472 52.7634L40.465 53.2812C40.0899 53.5136 39.8004 53.5421 39.3397 53.856C39.1113 53.9987 38.9931 54.0273 38.7933 54.117C38.3611 54.2311 38.1287 54.3168 38.0717 54.4065C37.8678 54.6103 36.8893 54.9243 36.5998 55.0996C36.2533 55.2708 35.9352 55.3891 35.6213 55.5318C35.075 56.8568 34.8996 57.4072 34.7284 57.6356C34.6142 57.868 34.2106 58.3287 34.0964 58.5285C33.864 58.9321 33.5175 59.5641 33.2321 59.9106C32.9711 60.2286 32.596 60.6323 32.2536 60.9462C31.9641 61.1786 31.8214 61.5496 31.6461 61.6393C31.4463 61.6679 30.953 62.2427 30.8103 62.4466C30.6961 62.5893 30.0315 63.0786 29.3384 63.4251C28.8491 63.7146 27.9277 64 27.1775 64C26.9777 64 26.8309 64 26.6597 63.9429C25.881 63.7105 25.3346 63.1642 25.3346 62.6178C25.3346 62.0715 25.5385 61.4355 25.7953 61.146C26.0563 60.9177 26.3988 60.514 26.6312 60.1675C26.8921 59.8495 27.0348 59.7068 27.3243 59.5355C27.6138 59.3317 27.6994 59.4214 28.0174 59.1319C28.3354 58.8139 28.6494 58.5855 29.1142 58.2675C29.6034 57.8924 30.0927 57.5459 30.7287 57.289C31.3647 57.0281 31.3362 56.9139 31.7072 56.7427C32.1109 56.5388 32.6287 56.339 32.9181 56.2249C33.0894 56.1678 33.3218 56.021 33.5216 55.8498C33.5501 55.8212 33.5501 55.7927 34.0108 54.7245C34.2106 54.2923 34.3859 53.5421 34.5001 53.0243C34.6428 52.5065 34.6713 52.1029 34.8752 51.5851C34.9037 51.4994 34.9323 51.4138 34.9323 51.3241C34.9323 51.0061 34.6999 50.7492 34.4715 50.7492C34.3003 50.7492 34.0964 50.8349 33.7784 51.1814C33.4033 51.528 33.2321 51.6136 32.9711 51.846C32.6817 52.1069 32.1924 52.4209 31.8744 52.6533C31.5564 52.9142 31.2098 52.9428 30.9815 53.2282C30.8103 53.4891 30.1742 53.6318 29.8562 53.8601C29.6238 54.064 29.106 54.3494 28.9062 54.4962C28.7064 54.6103 28.2702 54.7571 27.9277 54.7571C27.8135 54.7571 27.6953 54.7571 27.6097 54.7C27.2917 54.6144 26.7739 54.5573 26.5741 54.2393C26.4028 53.9784 26.2561 53.5176 26.2561 53.114C26.2561 52.6247 26.5455 52.2496 26.8921 51.7889C27.0633 51.5565 27.1245 51.0673 27.2387 50.9246C27.3814 50.7533 28.1886 49.8564 28.2743 49.6851C28.3313 49.571 28.417 49.4242 28.417 49.3386C28.417 49.1388 28.3313 48.992 28.0704 48.992C27.8421 48.992 26.888 49.3671 26.2846 49.5954C25.9951 49.681 24.931 50.1132 24.6415 50.26C24.3235 50.4638 23.1697 50.9246 22.8843 51.1243C22.5377 51.2956 21.8772 51.6136 21.6448 51.6992L20.4053 52.217L19.6552 52.5636C19.6266 52.5921 19.3371 52.7348 19.1944 52.7348C19.0517 52.7348 18.8479 52.6207 18.8193 52.4739C18.8193 52.3597 18.962 52.3026 19.1944 52.1844C19.3371 52.0702 19.3942 52.0702 19.5125 52.0132C19.8019 51.9846 20.177 51.8134 20.2056 51.7237C20.2912 51.6095 20.8701 51.3486 21.3023 51.1773L22.1667 50.7737C22.4276 50.6881 22.7742 50.5413 23.031 50.3701C23.4347 50.2559 23.5203 50.313 23.8098 50.0806C23.9525 49.995 24.8454 49.5057 25.7994 49.045C25.885 48.9879 26.0889 48.9594 26.2031 48.9308C26.9247 48.5843 27.4425 48.2377 27.6464 48.1521C28.05 47.9482 28.7717 47.6914 29.1753 47.6628C29.6075 47.6628 30.0397 47.8626 30.3291 48.0379C30.6472 48.2703 30.6472 48.5272 30.7042 48.9308C30.7328 49.1592 29.8399 50.2559 29.7257 50.5739C29.583 50.9205 29.3506 51.0346 29.2365 51.267C29.0938 51.5565 29.0326 51.8134 28.8043 51.9887C28.633 52.2211 28.2294 53.2567 28.2294 53.5176C28.2294 53.6889 28.4577 53.8071 28.6901 53.8071C28.8043 53.8071 28.8899 53.7786 29.0081 53.75C29.3547 53.6359 29.6727 53.3749 30.0152 53.2322C30.3332 53.061 30.5901 52.8001 30.9081 52.5962C31.2832 52.425 31.6583 51.8745 32.119 51.7318C32.5797 51.5891 32.8121 51.2711 32.8121 51.2426C32.8121 51.2426 33.705 50.3497 34.1943 50.1173C34.4838 49.946 34.8303 49.8278 35.0872 49.8278C35.1728 49.8278 35.287 49.8564 35.3481 49.8849C35.6091 49.9991 36.2696 50.2885 36.4163 50.8634C36.5876 51.4383 36.6202 51.3241 36.6202 51.7563C36.6202 52.1599 36.506 53.1099 36.3593 53.4565C36.2736 53.8601 36.0127 54.6959 36.0127 54.6959C36.3878 54.5247 37.0483 54.3208 37.2236 54.1781H37.2073ZM33.2565 56.5429C32.7387 56.8324 32.1313 57.1789 31.96 57.3216C31.7602 57.5826 31.1527 57.7253 30.6349 58.0147C30.1171 58.3328 29.7135 58.6508 29.3384 58.9076C29.0775 59.0789 28.6453 59.454 28.3313 59.6864C28.0174 59.9188 27.4955 60.4366 27.2346 60.6934C26.7453 61.2112 26.4558 61.6719 26.2846 62.0756C26.2561 62.1612 26.2275 62.2468 26.2275 62.308C26.2275 62.5689 26.4273 62.7687 26.6026 62.8543C26.6882 62.8829 26.7739 62.8829 26.8921 62.8829C27.2101 62.8829 27.6423 62.7687 28.0745 62.6219C28.6494 62.4507 29.3425 61.5537 29.8317 61.1827C30.321 60.8932 30.321 60.6649 30.8103 60.2327C31.2424 59.772 31.2139 59.5396 31.4748 59.3398C31.7358 59.1686 31.8214 59.0503 31.9641 58.6752C32.1068 58.3001 32.3677 58.0392 32.543 57.7253C32.7143 57.4358 32.9752 57.2075 33.2647 56.5429H33.2565Z" fill="#312F2E"/>
<path d="M66.7548 55.275C66.3797 55.5645 66.2084 55.4177 65.7477 55.7072C65.287 56.0537 64.8548 56.225 64.4226 56.3717C63.9904 56.5715 63.6439 56.6612 63.069 57.0037C62.433 57.3217 61.8866 57.5215 61.0794 57.7824C60.2721 58.1004 58.947 58.3573 57.9073 58.3573C57.0144 58.3573 56.4069 58.0964 55.9462 57.8966C55.5711 57.7253 54.9677 57.3503 54.5926 56.6571C54.246 56.0211 54.189 55.5604 54.189 55.0711C54.189 54.7246 54.2175 54.378 54.2175 53.9173C54.2175 52.8491 54.6782 52.1886 55.1675 51.524C55.6282 50.7738 55.8321 50.3416 56.6108 49.6485C57.3895 48.9268 57.5608 49.2163 57.9644 48.8698C58.368 48.5232 58.9429 48.1196 59.318 47.9198C60.0968 47.6303 60.9611 47.1411 61.536 46.8801C61.854 46.766 62.0253 46.6477 62.0253 46.505C62.0253 46.3909 61.9111 46.3052 61.6502 46.1585C61.0753 45.8404 60.2395 45.1514 60.2395 44.1973C60.2395 43.7652 60.3822 43.2759 60.586 42.9294C60.7573 42.5257 60.847 41.9794 61.4504 41.5472C62.0253 41.0865 62.3433 40.5401 63.9293 39.8756C65.2544 39.3007 67.0116 39.1254 68.4835 39.1254C68.83 39.1254 69.1766 39.1254 69.4905 39.1539C69.7229 39.1824 69.8942 39.211 70.098 39.2681C70.5873 39.0357 70.4446 39.0357 71.0765 38.7788C71.684 38.7788 72.4587 38.2896 73.1804 38.2896C73.6982 38.2896 73.8164 38.5219 73.8164 38.7503C73.8164 38.95 73.7308 39.1539 73.6166 39.3537C73.5595 39.4393 73.5024 39.4678 73.4454 39.4678C73.2741 39.4678 73.0703 39.1213 72.6381 39.1213C71.9735 39.1213 71.5699 39.1213 70.8238 39.5249L70.7096 39.582C71.2559 39.9571 71.4598 40.5034 71.4598 40.8215C71.4598 41.3107 71.0276 42.0324 70.8523 42.3504C70.6525 42.6113 70.4772 42.6399 70.2163 43.1577C70.045 43.6755 69.5231 43.7326 68.9483 44.1647C68.4875 44.5113 68.0268 44.8008 67.509 44.8008C67.3663 44.8008 67.2196 44.8008 67.0769 44.7437C66.4408 44.601 66.241 43.9079 66.241 43.3615C66.241 42.6113 66.4694 42.4686 66.7018 41.9508C66.9015 41.433 66.9912 41.5472 67.3378 41.3148C67.7414 41.0865 67.7985 40.7685 68.2878 40.3363C68.5487 40.1039 68.8341 39.9041 69.1521 39.7329C68.8912 39.7043 68.6343 39.6758 68.4019 39.6758C66.0943 39.6758 65.6335 39.9367 64.7121 40.5401C63.7907 41.1436 63.1832 41.8938 62.9834 42.5298C62.8407 42.962 62.7225 43.4512 62.7225 44.0016C62.7225 44.2911 62.751 44.6051 62.8366 44.8945C63.0364 45.816 63.2117 45.9628 63.6724 46.2767C63.8437 46.2767 64.1046 46.4765 64.337 46.4765C64.5979 46.4765 64.8833 46.4194 65.1443 46.4194C65.2299 46.4194 65.3155 46.4479 65.4052 46.4479C65.8374 46.5336 66.0983 46.7089 66.0983 46.9087C66.0983 46.9372 66.0983 46.9943 66.0698 47.0228C65.9271 47.2552 65.3196 47.3694 64.7162 47.3694C64.3125 47.3694 63.648 47.1655 63.1302 47.1655C62.7551 47.1655 62.2087 47.2797 61.5727 47.5121C60.794 47.8301 60.2191 48.6945 59.0938 49.7912C57.997 50.8594 57.2794 51.7238 57.047 52.5881C56.7861 53.481 56.6149 53.6237 56.5578 54.1741C56.5293 54.5207 56.5007 54.8102 56.5007 55.067C56.5007 55.4992 56.5863 55.9314 56.8187 56.3065C57.4221 57.285 57.7972 57.285 58.7228 57.285C59.7298 57.285 60.1375 57.2565 61.1731 56.967C62.2087 56.649 62.9875 56.2739 63.3911 56.1883C63.9986 55.9885 64.5735 55.6134 65.2951 55.381C65.9883 55.0915 66.8241 54.6022 67.4275 54.2272C67.6273 54.113 68.4345 53.7379 68.5813 53.6237C68.8137 53.481 69.303 53.1345 69.4742 53.0489C69.7637 52.9062 69.8208 52.845 70.1103 52.6738C70.1388 52.6167 70.4568 52.4699 70.5995 52.3843C70.6566 52.3272 70.8319 52.2701 70.9175 52.2416C71.0888 52.2416 71.1785 52.2701 71.2356 52.3272C71.3212 52.3843 71.3212 52.4699 71.3212 52.5311C71.2926 52.6167 71.207 52.7308 71.0888 52.8205C70.7422 53.0203 70.4568 53.11 70.1388 53.2813L69.0135 54.0029C68.8137 54.1741 68.5528 54.378 68.2918 54.4065C67.8311 54.5492 66.8811 55.1853 66.7629 55.2709L66.7548 55.275ZM69.78 39.9408C69.6658 39.9979 69.5191 40.055 69.3478 40.1732C68.83 40.5483 68.8015 40.8052 68.4264 41.1803C68.0228 41.5554 68.0798 41.9019 67.7618 42.5624C67.5906 42.8804 67.5294 43.1658 67.5294 43.3982C67.5294 43.6877 67.615 43.916 67.7618 44.0913C67.8189 44.1484 67.9045 44.177 67.9901 44.177C68.2511 44.177 68.6262 43.8589 68.9687 43.545C69.5721 43.0272 69.833 42.8519 70.0939 42.4768C70.3549 42.0732 70.5261 41.5554 70.5261 41.0946C70.5261 40.4871 70.2081 40.1447 69.7759 39.9408H69.78Z" fill="#312F2E"/>
<path d="M98.9805 52.853C99.1518 52.796 99.3556 52.7103 99.4127 52.6533C99.4698 52.6247 99.7022 52.5391 99.7878 52.4209C99.902 52.3638 100.049 52.2782 100.22 52.2782C100.306 52.2782 100.391 52.3067 100.481 52.3638C100.538 52.4494 100.567 52.5065 100.567 52.5636C100.567 52.6777 100.481 52.7348 100.452 52.7674C100.281 52.853 99.8449 53.0569 99.1559 53.4605C98.5198 53.8071 97.5413 54.0354 97.3415 54.1251C96.045 54.5858 95.4375 54.5858 94.5161 54.5858C94.2877 54.5858 94.0553 54.5287 93.7659 54.4717C93.2481 54.4146 92.7303 54.1251 92.294 53.9253C91.8904 53.7215 91.3726 53.2322 91.2584 52.9754C91.1442 52.7185 91.026 52.1966 91.026 51.6503C91.026 51.4505 91.0546 51.161 91.0546 50.8715C91.0546 50.6718 91.0546 50.4964 90.9975 50.3537C90.9689 50.154 90.8262 50.0643 90.7365 50.0643C90.5082 50.0643 90.3614 50.2355 90.1331 50.3537C89.9333 50.4964 89.758 50.5535 89.3544 50.9001C89.0078 51.2466 88.8651 51.3037 88.5471 51.5647C88.2862 51.7359 87.9396 52.1395 87.6257 52.3149C87.3362 52.4861 87.4218 52.4861 87.0182 52.8612C86.7002 53.1792 86.6716 53.5258 86.3536 53.8397C86.0927 54.1292 85.6034 54.3004 85.3465 54.329C85.1141 54.329 84.4822 54.329 84.4822 53.8112C84.4822 53.379 84.7105 53.0324 84.8002 52.6288C84.9144 52.2537 85.1182 51.8215 85.2895 51.532C85.4322 51.1855 85.6931 50.0602 85.9255 49.7462C86.0111 49.6321 86.0396 49.5138 86.0396 49.4282C86.0396 49.257 85.9255 49.1102 85.8684 49.0531C85.8399 49.0246 85.8113 49.0246 85.7828 49.0246C85.6686 49.0246 85.4648 49.1102 85.2935 49.2284C85.0937 49.3426 84.8899 49.4608 84.6004 49.7177C84.2539 50.0072 83.9644 50.0357 83.679 50.3537C83.4792 50.5861 83.418 50.6718 83.1612 50.843C82.8717 51.0428 82.6719 51.161 82.4395 51.5361C82.15 51.8256 81.8361 51.9112 81.5466 52.2292C81.2001 52.5187 80.9106 52.747 80.5681 53.065C80.2501 53.3831 79.5611 53.7582 79.3287 54.0436C79.186 54.333 78.6926 54.6184 78.4643 54.8223C78.236 55.0221 78.0321 55.283 77.8283 55.283C77.657 55.283 76.9924 55.2545 76.8783 55.0221C76.7356 54.8794 76.6173 54.6755 76.6173 54.5043C76.6173 54.4472 76.6173 54.3901 76.6459 54.333C76.8171 54.0436 76.8497 53.7582 77.1637 53.4401C77.5388 53.1221 77.6529 52.4902 77.8283 52.2863C78.0036 52.0825 78.3461 51.7685 78.3746 51.479C78.3746 51.2181 79.2104 50.5291 79.2104 49.6932C79.2104 49.4894 79.0392 49.3467 78.6641 49.3467C78.2604 49.3467 77.8283 49.6362 77.4532 49.8074C76.8171 50.1825 76.5317 50.2681 76.3849 50.3537C76.0384 50.5535 74.9416 50.9286 74.6562 51.1325C74.3097 51.3037 73.6492 51.6217 73.4168 51.7074C73.0702 51.8215 72.5239 52.111 72.1773 52.2537C71.9775 52.3393 71.5413 52.4861 71.4271 52.5717C71.313 52.6573 71.1091 52.743 70.9664 52.743C70.8237 52.743 70.6198 52.6288 70.5913 52.482C70.5913 52.3679 70.734 52.3393 70.9664 52.1925C71.1091 52.1069 71.1662 52.0498 71.2844 52.0213C71.5739 51.9642 71.7166 51.9071 71.9775 51.7318C72.0917 51.6747 72.6421 51.3567 73.0743 51.1855C73.3352 51.0999 73.796 50.8389 73.9387 50.7818C74.2567 50.6677 74.5461 50.5209 74.803 50.3782C75.1781 50.1743 75.2637 50.2926 75.5817 50.0887C75.753 49.9746 77.2534 49.1102 77.9465 48.7922C78.4358 48.5598 79.3287 48.042 80.0218 48.042C80.3398 48.042 80.6293 48.0991 80.9147 48.2744C81.2327 48.4782 81.4325 48.7922 81.4325 49.2244C81.4325 49.8889 81.0288 50.9245 80.9147 51.1284C80.8861 51.1855 80.6252 51.6462 80.6252 51.8215C80.6252 51.8786 80.6537 51.8786 80.6823 51.8786C80.7964 51.8786 81.0574 51.793 81.2001 51.6177C81.3713 51.3853 81.8646 50.9245 82.0644 50.7533C82.2642 50.5821 82.5537 50.1784 82.729 50.1499C82.9329 50.0928 83.2753 49.8889 83.5077 49.6892C83.7075 49.4853 84.315 49.1143 84.4863 48.939C84.686 48.678 85.2935 48.3029 85.4933 48.1032C85.7543 47.9604 86.1293 47.7566 86.533 47.7566C86.9366 47.7566 87.6012 48.1602 87.7724 48.5353C87.8866 48.7677 88.0048 49.0531 88.0048 49.3711C88.0048 49.5424 87.9478 49.7462 87.8621 49.946C87.5727 50.4924 87.7194 50.5821 87.3729 51.0428C87.3443 51.0713 87.2016 51.475 87.2016 51.6177C87.2873 51.5606 87.748 51.3282 87.8051 51.2711C88.1516 50.9531 88.2943 50.8675 88.6694 50.6065C89.016 50.317 89.2443 50.0602 89.4482 50.0602C89.5623 50.0602 89.6479 49.8889 89.8518 49.7422C90.2554 49.4527 90.8303 49.0491 91.3522 49.0491C91.7558 49.0491 92.3022 49.1632 92.5631 49.4812C93.0238 50.0276 93.1706 50.4883 93.1706 50.7207C93.1706 50.9245 93.3133 51.7277 93.3704 52.0743C93.4275 52.3923 93.5987 52.853 93.8026 52.9672C94.0064 53.0528 94.2633 53.3708 94.4957 53.4565C94.6955 53.5421 95.1602 53.7459 95.5639 53.7459C95.8819 53.7459 96.7177 53.7174 97.2926 53.485C97.4924 53.3994 97.7533 53.3708 97.9572 53.2852C98.161 53.1711 98.6503 53.0528 98.9968 52.853H98.9805Z" fill="#312F2E"/>
<path d="M110.368 55.389C110.197 55.5887 109.793 55.4746 109.446 55.6499C109.332 55.6784 109.1 55.707 108.872 55.707C108.439 55.707 107.95 55.6499 107.832 55.6214C107.632 55.5928 106.91 55.1892 106.796 54.9568C106.654 54.6958 106.364 54.4104 106.364 53.9212C106.364 53.7173 106.336 53.5461 106.336 53.3748C106.336 53.1139 106.364 52.8571 106.45 52.6817C106.654 52.3637 106.939 51.5564 107.171 51.4423C107.314 51.3281 107.489 51.0957 107.604 50.8959C107.661 50.7818 107.922 50.4352 108.064 50.1743C108.207 49.9745 108.264 49.8277 108.264 49.7136C108.264 49.5709 108.178 49.4241 108.003 49.4241C107.714 49.4241 107.196 49.5953 106.821 49.7706C106.417 49.9704 105.956 50.1172 105.667 50.2599C105.349 50.4638 104.195 50.9245 103.91 51.1243C103.563 51.2955 102.903 51.6135 102.67 51.6991L100.681 52.5635C100.652 52.592 100.363 52.7347 100.22 52.7347C100.077 52.7347 99.8733 52.6206 99.8447 52.4738C99.8447 52.3596 99.9874 52.3026 100.22 52.1843C100.363 52.0702 100.42 52.0702 100.538 52.0131C100.827 51.9845 101.202 51.8133 101.231 51.7236C101.317 51.6094 101.896 51.3485 102.328 51.1773C103.453 50.7165 103.767 50.5127 104.056 50.37C104.432 50.1987 104.546 50.3129 104.835 50.0805C104.978 49.9949 105.671 49.5627 106.393 49.2162C107.343 48.7554 107.832 48.5801 108.007 48.466C108.439 48.1765 109.104 47.9482 109.622 47.9482C109.997 47.9482 110.315 48.0623 110.6 48.2662C110.89 48.47 111.004 48.6984 111.004 49.1591C111.004 49.7666 110.197 50.37 110.197 50.6595C109.968 50.9204 109.936 51.1487 109.679 51.4382C109.418 51.7562 109.132 51.9845 108.986 52.3882C108.753 52.906 108.525 53.5991 108.525 54.2637C108.525 54.6102 108.986 54.81 109.218 54.81C109.422 54.81 109.65 54.8385 109.854 54.8385C110.058 54.8385 110.229 54.81 110.372 54.7244C110.6 54.6673 111.179 54.492 111.35 54.4064C111.811 54.3207 112.243 54.2351 112.419 54.1169C112.737 53.9742 113.112 54.0598 113.397 53.856C113.568 53.7133 114.433 53.4809 114.608 53.3667C114.779 53.2525 115.126 53.1955 115.33 53.1058C115.501 53.0201 115.415 53.0487 115.762 52.8448C115.966 52.7877 116.223 52.5839 116.569 52.4126C116.683 52.3556 116.859 52.2699 117.001 52.2699C117.144 52.2699 117.319 52.3841 117.319 52.5594C117.319 52.6736 117.234 52.7307 117.205 52.7633C116.887 52.9631 116.512 53.1098 116.198 53.3667C115.795 53.6847 115.362 53.5991 114.902 53.8845C114.673 54.0272 114.384 54.1169 114.18 54.174C113.805 54.3167 113.487 54.3452 113.401 54.4064C113.259 54.6673 112.276 54.7815 111.929 54.9242C111.236 55.2707 110.547 55.2136 110.372 55.3849L110.368 55.389ZM114.001 42.3584C114.001 42.6193 113.944 42.8762 113.74 42.9944C113.45 43.1086 113.25 43.1657 112.989 43.2839C112.818 43.341 112.5 43.4266 112.325 43.4266C112.064 43.4266 111.66 43.1657 111.632 42.9944C111.632 42.7906 111.717 42.5052 111.832 42.3298C111.917 42.1871 112.003 42.0404 112.178 42.0118C112.553 41.9262 112.843 41.6367 113.214 41.6367C113.674 41.6367 113.992 41.8691 113.992 42.3584H114.001Z" fill="#312F2E"/>
<path d="M124.434 55.968C124.059 56.1678 123.512 56.4573 123.109 56.5143C122.705 56.5714 122.244 56.7753 121.494 56.7753C120.459 56.7753 119.88 55.968 119.88 54.9609C119.88 54.2964 120.084 53.6359 120.255 52.8571C120.369 52.3108 120.919 51.4179 121.233 50.8104L120.944 51.0102C120.654 51.1814 119.965 51.528 119.733 51.5565L118.493 52.1029C118.233 52.217 118.033 52.3352 117.743 52.4209C117.658 52.4494 117.397 52.5921 117.283 52.5921C117.083 52.5921 116.907 52.478 116.879 52.3597C116.879 52.2456 117.05 52.1599 117.283 52.0702C117.397 51.9275 117.515 51.899 117.572 51.899C117.89 51.8419 118.237 51.6666 118.294 51.581C118.379 51.5239 118.93 51.2344 119.39 51.0346C119.623 50.9776 120.055 50.7166 120.255 50.6595C120.516 50.6025 120.83 50.3986 121.148 50.2559C121.347 50.1703 121.466 50.1703 121.637 50.0561C121.898 49.1061 122.587 48.2703 123.137 47.3734C123.484 46.7985 123.83 46.4805 124.206 45.9912C124.609 45.4734 124.87 44.8944 125.302 44.4908C125.62 44.0872 126.11 43.7691 126.371 43.6264C126.66 43.4837 126.917 42.6765 127.467 42.3014C128.042 41.9263 128.303 41.3799 128.707 41.2617C129.053 41.119 129.543 40.5115 130.117 40.1364C130.696 39.7328 131.414 39.3577 132.05 39.3577C132.539 39.3577 133.147 39.5901 133.147 40.0222C133.147 40.2832 133.118 40.4259 132.976 40.801C132.833 41.119 132.657 41.5512 132.458 41.808C132.286 42.0404 132.054 42.3829 131.822 42.6724C131.589 42.9904 131.361 43.2187 131.157 43.4797C130.925 43.7121 130.782 44.026 130.407 44.2299C130.032 44.4296 130.032 44.662 129.742 44.8333C129.481 45.0657 128.878 45.7547 128.588 46.0157C128.356 46.3051 128.042 46.4478 127.838 46.6517C127.634 46.8556 127.349 47.1695 127.088 47.3734C126.77 47.5446 126.452 47.777 126.252 47.9768C126.081 48.1766 125.359 48.6128 124.899 48.8697C124.666 48.9838 124.148 49.2162 124.148 49.2162C123.802 49.8808 123.37 50.5698 123.17 50.9735C122.795 51.7237 122.738 52.3556 122.567 52.7593C122.452 53.1344 122.481 53.4809 122.249 53.8846C122.02 54.2597 122.02 54.6918 122.02 55.0955C122.02 55.3564 122.22 55.5847 122.799 55.5847C123.031 55.5847 123.374 55.4991 123.692 55.4135C123.953 55.3279 124.442 55.2137 124.817 55.124C125.192 55.0099 125.624 54.5491 126.028 54.5206C126.432 54.4921 126.721 54.2311 126.921 54.117C127.239 53.9457 127.643 53.9172 127.899 53.7133C128.071 53.5706 128.939 53.3668 129.082 53.2526C129.253 53.1099 129.628 53.0528 129.832 52.9631C130.036 52.8734 129.861 52.9061 130.264 52.7307C130.497 52.6451 130.839 52.4698 131.071 52.2986C131.157 52.2129 131.332 52.1559 131.475 52.1559C131.589 52.1559 131.793 52.2415 131.793 52.3842C131.793 52.4413 131.736 52.5269 131.679 52.6166C131.418 52.9061 130.957 52.9346 130.643 53.1629C130.24 53.4524 129.836 53.4524 129.375 53.7663C129.147 53.909 128.886 53.9987 128.654 54.0558C128.279 54.17 127.961 54.2271 127.904 54.3167C127.732 54.5206 126.925 54.806 126.578 54.9528C126.26 55.0955 124.821 55.7315 124.446 55.9598L124.434 55.968ZM125.502 47.8667C125.734 47.6669 126.081 47.5487 126.338 47.2633C126.57 46.9167 126.917 46.7169 127.174 46.4845C127.402 46.3133 127.895 45.8811 128.038 45.82C128.209 45.7629 128.238 45.559 128.584 45.1554C128.96 44.7517 129.306 44.4623 129.62 44.0872C129.938 43.6835 130.052 43.4837 130.313 43.337C130.603 43.2228 130.717 42.8477 130.917 42.6439C131.088 42.4726 131.491 42.0119 131.667 41.7224C131.752 41.5797 131.928 41.2902 131.928 41.0578C131.928 40.9151 131.842 40.7969 131.581 40.7969C131.353 40.7969 130.978 41.1435 130.688 41.4329C130.399 41.7224 130.109 42.1546 129.938 42.1546C129.734 42.1546 129.534 42.5012 129.302 42.7295C129.041 42.9904 128.984 43.2187 128.58 43.5082C128.234 43.7977 127.716 44.5153 127.427 44.7477C127.166 45.0371 126.994 45.3225 126.391 45.9015C125.755 46.5049 125.612 46.9371 125.498 47.1124C125.384 47.3122 125.123 47.7485 124.691 48.3804C124.691 48.3804 125.266 48.0909 125.498 47.8626L125.502 47.8667Z" fill="#312F2E"/>
<path d="M141.501 55.389C141.33 55.5887 140.926 55.4746 140.58 55.6499C140.466 55.6784 140.233 55.707 140.005 55.707C139.573 55.707 139.083 55.6499 138.965 55.6214C138.765 55.5928 138.044 55.1892 137.93 54.9568C137.787 54.6958 137.497 54.4104 137.497 53.9212C137.497 53.7173 137.469 53.5461 137.469 53.3748C137.469 53.1139 137.497 52.8571 137.583 52.6817C137.787 52.3637 138.072 51.5564 138.305 51.4423C138.447 51.3281 138.623 51.0957 138.737 50.8959C138.794 50.7818 139.055 50.4352 139.198 50.1743C139.34 49.9745 139.397 49.8277 139.397 49.7136C139.397 49.5709 139.312 49.4241 139.136 49.4241C138.847 49.4241 138.329 49.5953 137.954 49.7706C137.55 49.9704 137.09 50.1172 136.8 50.2599C136.482 50.4638 135.328 50.9245 135.043 51.1243C134.696 51.2955 134.036 51.6135 133.803 51.6991L131.814 52.5635C131.785 52.592 131.496 52.7347 131.353 52.7347C131.21 52.7347 131.007 52.6206 130.978 52.4738C130.978 52.3596 131.121 52.3026 131.353 52.1843C131.496 52.0702 131.553 52.0702 131.671 52.0131C131.961 51.9845 132.336 51.8133 132.364 51.7236C132.45 51.6094 133.029 51.3485 133.461 51.1773C134.586 50.7165 134.9 50.5127 135.19 50.37C135.565 50.1987 135.679 50.3129 135.968 50.0805C136.111 49.9949 136.804 49.5627 137.526 49.2162C138.476 48.7554 138.965 48.5801 139.14 48.466C139.573 48.1765 140.237 47.9482 140.755 47.9482C141.13 47.9482 141.448 48.0623 141.734 48.2662C142.023 48.47 142.137 48.6984 142.137 49.1591C142.137 49.7666 141.33 50.37 141.33 50.6595C141.102 50.9204 141.069 51.1487 140.812 51.4382C140.551 51.7562 140.266 51.9845 140.119 52.3882C139.887 52.906 139.658 53.5991 139.658 54.2637C139.658 54.6102 140.119 54.81 140.351 54.81C140.555 54.81 140.784 54.8385 140.987 54.8385C141.191 54.8385 141.363 54.81 141.505 54.7244C141.734 54.6673 142.313 54.492 142.484 54.4064C142.944 54.3207 143.377 54.2351 143.552 54.1169C143.87 53.9742 144.245 54.0598 144.53 53.856C144.702 53.7133 145.566 53.4809 145.741 53.3667C145.913 53.2525 146.259 53.1955 146.463 53.1058C146.634 53.0201 146.549 53.0487 146.895 52.8448C147.099 52.7877 147.356 52.5839 147.703 52.4126C147.817 52.3556 147.992 52.2699 148.135 52.2699C148.277 52.2699 148.453 52.3841 148.453 52.5594C148.453 52.6736 148.367 52.7307 148.339 52.7633C148.021 52.9631 147.645 53.1098 147.331 53.3667C146.928 53.6847 146.496 53.5991 146.035 53.8845C145.807 54.0272 145.517 54.1169 145.313 54.174C144.938 54.3167 144.62 54.3452 144.535 54.4064C144.392 54.6673 143.409 54.7815 143.063 54.9242C142.37 55.2707 141.681 55.2136 141.505 55.3849L141.501 55.389ZM145.134 42.3584C145.134 42.6193 145.077 42.8762 144.873 42.9944C144.583 43.1086 144.384 43.1657 144.123 43.2839C143.952 43.341 143.634 43.4266 143.458 43.4266C143.197 43.4266 142.794 43.1657 142.765 42.9944C142.765 42.7906 142.851 42.5052 142.965 42.3298C143.05 42.1871 143.136 42.0404 143.311 42.0118C143.687 41.9262 143.976 41.6367 144.347 41.6367C144.808 41.6367 145.126 41.8691 145.126 42.3584H145.134Z" fill="#312F2E"/>
<path d="M148.591 52.5636C148.506 52.5921 148.216 52.7348 148.131 52.7348C147.931 52.7348 147.727 52.6207 147.727 52.4739C147.727 52.3597 147.927 52.3027 148.131 52.1844C148.216 52.0703 148.33 52.0703 148.449 52.0132C148.71 51.9847 149.085 51.8134 149.142 51.7237C149.227 51.6096 149.688 51.3772 150.353 51.1203C151.331 50.7452 151.678 50.5169 151.967 50.3701C152.314 50.1989 152.428 50.313 152.746 50.0806C152.86 50.0235 153.178 49.9665 153.639 49.7341C154.246 49.4731 154.332 49.416 154.503 49.3304C155.828 48.727 156.521 48.4946 157.153 48.2622C157.586 48.2622 158.018 47.7444 158.536 47.7444C158.854 47.7444 159.143 47.4549 159.514 47.4549C159.628 47.4549 159.832 47.4835 159.975 47.4835C160.032 47.4835 160.118 47.4549 160.146 47.3979C160.203 47.3122 160.635 47.2837 161.01 47.2837C161.328 47.2837 161.789 47.4549 162.107 47.7444C162.425 48.0339 162.711 48.5231 162.711 48.9839C162.711 49.4731 162.711 49.6484 162.482 49.9624C162.311 50.2519 162.022 50.5658 161.732 50.5658C161.5 50.5373 161.443 50.3334 161.443 50.1907C161.443 50.048 161.642 49.6729 161.932 49.3263C161.96 49.2978 161.989 49.1836 161.989 49.0654C161.989 48.8045 161.903 48.462 161.699 48.3438C161.5 48.144 161.182 48.0543 160.864 48.0543C160.778 48.0543 160.664 48.0828 160.574 48.0828C160.171 48.1684 159.91 48.2867 159.135 48.6292C158.413 48.9757 157.981 49.4079 157.378 49.6688C156.742 49.9868 155.849 50.7941 155.592 51.1407C155.302 51.5158 155.188 51.5158 154.699 52.3801C154.153 53.3016 154.124 53.3872 154.034 53.8805C154.034 53.9661 154.006 54.0232 154.006 54.0803C154.006 54.4554 154.206 54.5696 154.467 54.5696C154.728 54.5696 155.592 53.9947 155.849 53.7908C156.195 53.4728 156.713 53.1263 157.174 52.6941C157.345 52.5228 157.435 52.319 157.81 51.8012C158.185 51.2548 158.76 51.1081 159.106 51.0224C159.424 50.8797 159.685 50.7615 159.885 50.7615C160.113 50.7615 160.289 50.9327 160.289 51.1651C160.289 51.2222 160.289 51.2793 160.26 51.3364C160.232 51.4505 160.232 51.5688 160.232 51.6544C160.232 51.8542 160.26 52.001 160.26 52.2007C160.26 52.4617 160.521 53.4687 160.749 53.7011C160.982 53.905 161.386 54.0477 161.557 54.1333C161.642 54.2189 162.421 54.276 162.91 54.276C163.542 54.276 164.007 54.2189 164.178 54.1048C164.525 53.905 164.871 54.0192 165.185 53.8153C165.328 53.6726 166.192 53.4402 166.368 53.3546C166.568 53.2119 166.914 53.1222 167.118 53.0366C167.379 52.8939 167.607 52.8327 167.897 52.6615C167.925 52.6044 168.243 52.4576 168.386 52.372C168.443 52.3149 168.586 52.2578 168.79 52.2293C168.875 52.2293 168.961 52.2578 169.022 52.3149C169.136 52.372 169.136 52.4576 169.136 52.5188C169.108 52.6044 168.965 52.7185 168.875 52.8082C168.557 53.008 168.239 53.0977 167.925 53.269C167.522 53.5014 167.118 53.5584 166.629 53.8724C166.458 54.0151 166.139 54.1048 165.936 54.1333C165.532 54.3046 165.271 54.3046 165.185 54.3943C165.014 54.6266 164.032 54.7693 163.714 54.912C163.367 55.0547 162.185 55.1404 161.638 55.173C161.496 55.2015 161.349 55.2015 161.178 55.2015C160.631 55.2015 159.967 55.1159 159.563 54.9691C159.017 54.855 158.67 54.5655 158.466 54.3046C158.091 53.8438 157.773 53.4117 157.745 53.4117C157.63 53.4117 157.227 53.7582 156.795 53.9009C156.277 54.1333 155.641 54.6511 155.237 54.908C154.948 55.0792 154.287 55.3687 153.68 55.5399C153.419 55.597 153.276 55.6256 153.133 55.6256C152.962 55.6256 152.787 55.597 152.497 55.5114C151.951 55.5114 151.547 54.9936 151.547 54.4432C151.547 53.9254 151.78 53.1752 151.951 52.8857C152.179 52.5962 152.526 52.0784 152.844 51.7889C153.276 51.4424 153.333 51.2997 153.508 51.0102C153.651 50.7493 154.173 50.26 154.662 49.9135C153.309 50.4313 152.126 50.8634 151.78 51.0673C151.462 51.2711 150.83 51.528 150.483 51.7033C150.194 51.846 149.011 52.3679 148.579 52.5391L148.591 52.5636Z" fill="#312F2E"/>
<path d="M192.49 50.26C192.865 50.1458 193.411 50.1173 193.962 50.1173C194.194 50.1173 194.394 50.1173 194.626 50.1458L194.859 49.6851C195.205 48.9349 195.405 48.303 195.927 47.8708C196.473 47.4386 196.934 46.6884 197.28 45.9953C197.57 45.3022 198.202 44.2951 198.548 44.0342C198.809 43.8344 199.327 42.8233 200.22 41.7877C198.923 41.5594 197.598 41.4697 196.73 41.1557C195.837 40.8092 195.173 40.5808 194.194 40.4341C193.215 40.3199 193.126 40.2343 191.658 40.2343C190.19 40.2343 188.975 40.4667 188.258 40.9559C187.365 41.5634 187.222 41.963 186.961 43.1454C186.904 43.4634 186.847 43.6632 186.847 43.8956C186.847 44.2992 186.99 44.6743 187.279 45.4245C187.768 46.6354 188.058 46.8067 188.547 47.3C189.008 47.7607 189.554 48.25 190.423 48.4538C190.769 48.5394 191.173 48.4538 191.173 48.7148C191.173 49.0328 191.002 49.1469 190.655 49.1469C189.705 49.1469 189.216 48.9757 188.176 48.4538C187.369 48.1073 186.504 47.5609 186.072 46.9249C185.697 46.35 185.64 46.6354 185.408 45.9178C185.147 45.1962 184.918 44.6784 184.918 44.2462C184.918 43.2391 184.947 42.9497 185.465 42.228C186.472 40.8173 188.205 39.9203 189.791 39.6064C190.512 39.4066 191.752 39.0601 192.73 39.0601C192.902 39.0601 193.048 39.0601 193.191 39.0886C194.259 39.1742 194.863 39.0315 195.959 39.3495C197.028 39.639 198.267 40.2139 199.189 40.3892C199.792 40.5034 200.514 40.7072 201.15 40.8499C201.292 40.7072 201.496 40.5605 201.667 40.4178C203.396 39.0641 203.942 38.689 204.436 38.6034C204.897 38.5463 205.59 38 205.875 38C206.682 38 206.972 38.2895 207.172 38.8644C207.2 38.95 207.2 39.0356 207.2 39.1253C207.2 39.6716 206.854 40.3648 206.279 40.7113C205.961 40.9111 205.586 41.1149 205.096 41.2862C204.55 41.4574 204.232 41.5757 203.653 41.6613C203.278 41.7184 202.556 41.8651 201.749 41.8937C201.288 42.44 200.828 43.0761 200.538 43.708C199.816 45.237 198.923 46.9371 198.52 47.3978C198.116 47.8015 198.145 48.1766 197.888 48.5802L196.848 50.2519H197.427C198.552 50.2519 198.956 50.2519 199.445 50.0195C199.531 49.9624 199.617 49.9624 199.678 49.9624C199.792 49.9624 199.82 50.048 199.82 50.1662C199.82 50.3089 199.792 50.4843 199.706 50.684C199.507 51.2304 199.131 51.3486 198.756 51.3486C198.467 51.3486 198.181 51.2915 197.978 51.263C197.717 51.2344 197.085 51.0917 196.42 50.9735C196.074 51.5198 195.727 52.1273 195.413 52.7022C194.492 54.4024 193.656 54.8346 193.105 55.385C192.559 55.9313 192.73 56.1352 191.866 56.7671C190.916 57.4603 191.03 57.4032 190.166 57.9495C189.273 58.4959 189.04 58.3532 188.841 58.4673C188.669 58.5815 188.437 58.9851 187.34 59.3888C186.244 59.7924 185.526 59.8209 184.429 59.8209C183.883 59.8209 182.064 59.4458 182.064 58.6386C182.064 58.3205 182.411 57.5418 182.843 57.5418C183.104 57.5418 183.361 57.9454 183.536 58.1778C183.765 58.4062 184.286 58.7813 184.747 58.871C185.065 58.9566 185.412 59.0137 185.697 59.0137C186.305 59.0137 186.851 58.8424 187.63 58.4673C188.812 57.921 189.012 57.6315 189.677 57.1993C190.308 56.7957 190.712 56.4777 191.177 55.7275C191.666 54.9773 191.723 54.806 192.184 54.1415C192.645 53.538 192.991 53.0732 193.309 52.2986C193.48 51.8093 193.856 51.2915 194.202 50.7697C193.827 50.7982 193.538 50.9124 193.224 51.0306C192.763 51.2018 192.217 51.5769 191.984 51.7522C191.927 51.7808 191.87 51.8093 191.841 51.8093C191.642 51.8093 191.495 51.3771 191.495 51.0591C191.495 50.6555 191.813 50.5413 192.502 50.2804L192.49 50.26ZM202.52 41.0089C202.748 41.0375 203.009 41.0375 203.27 41.0375C203.73 41.0375 204.191 40.9804 204.623 40.7765C205.516 40.3729 205.863 39.8836 205.977 39.4229C205.977 39.3373 206.006 39.2802 206.006 39.1905C206.006 38.9581 205.92 38.7584 205.602 38.7584C205.488 38.7584 205.341 38.7869 205.17 38.844C204.42 39.2476 203.845 39.5942 203.327 40.169L202.52 41.0049V41.0089Z" fill="#312F2E"/>
<path d="M218.551 52.796C218.665 52.739 218.898 52.6819 218.983 52.6533C219.069 52.5963 219.244 52.5392 219.358 52.4209C219.444 52.3639 219.648 52.2782 219.791 52.2782C219.905 52.2782 220.109 52.3924 220.109 52.5677C220.109 52.6819 219.994 52.739 219.966 52.7716C219.852 52.8572 219.42 53.061 219.42 53.061C219.277 53.1752 218.902 53.2323 218.784 53.322C218.641 53.4076 218.408 53.4361 218.119 53.5258C218.005 53.5544 217.858 53.64 217.744 53.6971C217.369 53.8683 216.822 53.958 216.243 54.0436C215.607 54.1293 214.947 54.1578 213.936 54.1578C213.532 54.1578 212.896 54.0722 212.378 53.9254C212.089 54.329 211.657 54.8183 211.224 55.0792C210.821 55.279 210.906 55.4258 210.592 55.5685C209.382 56.1148 208.574 56.2331 207.567 56.2331C207.363 56.2331 206.271 55.9436 206.01 55.2831C205.81 54.8795 205.635 54.3902 205.635 53.9866C205.635 53.7827 205.692 53.6115 205.777 53.4688C206.095 53.0651 205.863 52.8042 206.095 52.4902C206.324 52.2293 206.613 51.5403 206.731 51.422C206.731 51.422 206.731 51.3935 206.76 51.3364C206.528 51.5688 206.185 51.5973 206.01 51.7115C205.777 51.8827 204.884 52.1722 204.742 52.2293C204.628 52.2578 204.02 52.5759 204.02 52.5759C203.934 52.6044 203.645 52.7471 203.559 52.7471C203.36 52.7471 203.156 52.6329 203.156 52.4862C203.156 52.372 203.356 52.3149 203.559 52.1967C203.645 52.0825 203.759 52.0825 203.877 52.0254C204.138 51.9969 204.513 51.8257 204.571 51.736C204.656 51.6218 205.178 51.3609 205.667 51.1896C206.85 50.6718 207.196 50.3538 207.543 50.3538C207.804 50.2682 208.032 50.2111 208.264 50.0358C208.236 49.836 208.15 49.6322 208.15 49.4895C208.15 49.4324 208.15 49.4038 208.179 49.3753C208.293 48.886 208.179 48.5395 208.497 48.1644C208.815 47.7893 209.218 47.5283 209.565 47.3856C209.912 47.1818 210.572 46.982 210.89 46.8964C211.237 46.8393 211.64 46.7822 211.926 46.7822C212.329 46.7822 213.022 47.0717 213.308 47.3286C213.569 47.561 213.712 47.9931 213.883 48.2785C213.997 48.4498 214.115 49.0858 214.115 49.6322C214.115 49.836 214.087 50.0358 214.058 50.1785C214.001 50.7534 214.001 51.3038 213.797 51.5892C213.626 51.8787 213.479 52.1926 213.308 52.5106C213.308 52.5392 213.279 52.5677 213.279 52.5962C213.137 52.8572 212.99 53.1426 212.762 53.375C213.108 53.4891 213.54 53.5748 214.205 53.6359C214.666 53.6359 214.984 53.5788 215.273 53.5788C215.505 53.5788 215.591 53.6074 215.677 53.6074C216.023 53.6074 216.427 53.5218 216.888 53.375C217.462 53.2037 217.581 53.1711 217.895 53.0284C218.094 52.9428 218.27 52.9428 218.559 52.796H218.551ZM211.575 53.6318C211.171 53.4606 210.853 53.3424 210.597 53.1426C210.393 52.9713 209.989 52.739 209.704 52.478C209.532 52.3068 208.953 51.6422 208.754 51.2956L208.379 51.9602C208.207 52.2782 207.975 53.1711 207.918 53.5462C207.889 53.8357 207.832 54.1211 207.832 54.4391C207.832 55.1608 208.093 55.3606 208.293 55.4462C208.407 55.5033 208.525 55.5318 208.697 55.5318C208.839 55.5318 209.043 55.5033 209.271 55.4462C209.532 55.3606 209.818 55.0996 210.164 54.9855C210.511 54.8142 210.682 54.4962 210.972 54.3209C211.086 54.2353 211.318 53.9172 211.575 53.6278V53.6318ZM212.007 52.9387L212.297 52.478C212.468 52.16 212.558 51.6137 212.643 51.3242C212.729 51.0347 212.729 50.5169 212.786 50.1703C212.815 50.0562 212.815 49.9706 212.815 49.8523C212.815 49.5914 212.757 49.3631 212.7 49.1877C212.615 48.9268 212.729 48.5232 212.411 48.3519C212.036 48.1522 212.007 47.8627 211.604 47.5732C211.375 47.459 211.257 47.4305 211.143 47.4305C211.057 47.4305 210.972 47.459 210.825 47.459C210.507 47.5161 210.393 47.8056 210.25 48.0625C210.136 48.2337 210.136 48.4661 210.136 48.6659C210.136 48.8086 210.164 48.9268 210.164 49.5302C210.164 49.7015 210.164 49.8768 210.221 50.048C210.393 50.4802 210.454 50.8268 210.568 51.2304C210.625 51.6055 210.886 52.0091 211.176 52.2986C211.375 52.4699 211.722 52.7308 212.011 52.9306L212.007 52.9387Z" fill="#312F2E"/>
<path d="M228.724 55.1892C228.291 55.1892 227.223 54.9894 226.995 54.8141C226.591 54.439 226.273 53.7744 226.273 53.4034C226.273 53.1139 226.387 52.5676 226.563 52.482C226.734 52.4249 226.591 52.0783 226.824 51.6462C227.085 51.2425 227.456 50.9245 227.517 50.7533C227.517 50.6962 228.267 49.8033 228.267 49.6565C228.096 49.4853 227.778 49.3956 227.345 49.1102C226.51 49.628 225.588 50.1172 225.27 50.264C224.981 50.4679 223.827 50.9286 223.513 51.1284C223.195 51.2996 222.506 51.6176 222.302 51.7032L221.034 52.2781C220.834 52.3923 220.602 52.4494 220.312 52.5676C220.227 52.5961 219.937 52.7388 219.823 52.7388C219.652 52.7388 219.477 52.6247 219.477 52.4779C219.477 52.3637 219.619 52.3352 219.823 52.217C219.937 52.1028 220.084 52.1028 220.141 52.0743C220.431 52.0172 220.834 51.8133 220.863 51.7562C220.92 51.6706 221.527 51.4097 221.96 51.2384L222.824 50.7777C223.056 50.6636 223.431 50.5453 223.688 50.3741C224.063 50.2599 224.149 50.2599 224.467 50.0275C224.638 49.9134 226.053 49.2202 226.86 48.7881C226.718 48.6454 226.599 48.5271 226.571 48.4415C226.371 48.152 226.082 47.8381 226.053 47.2877C226.053 46.7699 226.053 46.3092 226.224 45.8484C226.396 45.3592 226.771 44.927 227.032 44.6661C227.378 44.348 228.357 44.03 229.05 44.03C229.368 44.03 229.714 44.0586 229.943 44.2013C230.204 44.3725 230.489 44.4337 230.489 44.8047C230.489 44.9759 230.66 45.0942 230.66 45.3225C230.66 45.5263 230.66 45.9585 230.314 46.4478C229.967 46.937 229.767 46.9656 229.592 47.3978C229.421 47.8585 228.899 47.9441 228.524 48.3763C228.41 48.4619 228.353 48.5761 228.206 48.6372C228.638 49.155 229.156 49.2121 229.502 49.473C229.877 49.7625 230.106 50.3374 230.106 50.6554C230.106 50.7125 230.106 50.7696 230.077 50.7981C229.992 51.0305 229.616 51.3159 229.441 51.6054C229.27 51.8949 229.009 52.1803 228.895 52.4697C228.724 52.7878 228.634 53.0161 228.634 53.3341C228.634 53.7092 228.834 54.1128 229.327 54.2555C229.555 54.3126 229.816 54.3412 230.02 54.3412C230.163 54.3412 230.31 54.3412 230.395 54.3126C230.77 54.1414 231.231 54.227 231.463 54.1128C231.753 53.9701 232.128 54.0558 232.442 53.8519C232.585 53.7092 233.42 53.5339 233.567 53.3912C233.767 53.277 234.171 53.1914 234.346 53.1017C234.546 53.0161 234.403 53.0446 234.835 52.8408C235.353 52.5798 235.443 52.5513 235.585 52.4086C235.671 52.3515 235.814 52.2944 235.932 52.2944C235.989 52.2944 236.018 52.2659 236.046 52.2659C236.103 52.2659 236.16 52.2944 236.189 52.323C236.274 52.4086 236.36 52.4657 236.36 52.5554C236.36 52.7592 235.871 52.9019 235.638 53.0446C235.496 53.1302 235.377 53.1588 235.206 53.2444C234.86 53.5339 234.37 53.591 233.91 53.8804C233.824 53.9375 233.188 54.1414 233.188 54.1699C232.784 54.3126 232.581 54.2841 232.523 54.3738C232.352 54.6062 231.284 54.7774 230.966 54.9201C230.762 54.9772 229.091 55.181 228.715 55.181L228.724 55.1892ZM227.774 47.4059C227.774 47.6383 227.802 47.8666 227.859 48.099C228.838 47.4671 229.07 47.1776 229.331 46.8025C229.531 46.3989 229.445 46.2847 229.678 45.8811C229.763 45.7384 229.792 45.6487 229.792 45.563C229.792 45.4203 229.706 45.2736 229.678 45.0738C229.678 44.7843 229.417 44.556 229.16 44.556C228.927 44.5845 228.552 44.7272 228.381 45.0452C228.238 45.3062 228.12 45.3347 227.977 45.5916C227.835 45.824 227.835 46.2847 227.835 46.6313C227.806 46.774 227.778 47.092 227.778 47.41L227.774 47.4059Z" fill="#312F2E"/>
<path d="M244.898 55.1892C244.466 55.1892 243.397 54.9894 243.169 54.8141C242.766 54.439 242.447 53.7744 242.447 53.4034C242.447 53.1139 242.562 52.5676 242.737 52.482C242.908 52.4249 242.765 52.0783 242.998 51.6462C243.259 51.2425 243.63 50.9245 243.691 50.7533C243.691 50.6962 244.441 49.8033 244.441 49.6565C244.27 49.4853 243.952 49.3956 243.52 49.1102C242.684 49.628 241.763 50.1172 241.445 50.264C241.155 50.4679 240.001 50.9286 239.687 51.1284C239.369 51.2996 238.68 51.6176 238.476 51.7032L237.208 52.2781C237.009 52.3923 236.776 52.4494 236.487 52.5676C236.401 52.5961 236.112 52.7388 235.997 52.7388C235.826 52.7388 235.651 52.6247 235.651 52.4779C235.651 52.3637 235.794 52.3352 235.997 52.217C236.112 52.1028 236.258 52.1028 236.315 52.0743C236.605 52.0172 237.009 51.8133 237.037 51.7562C237.094 51.6706 237.702 51.4097 238.134 51.2384L238.998 50.7777C239.231 50.6636 239.606 50.5453 239.863 50.3741C240.238 50.2599 240.323 50.2599 240.641 50.0275C240.813 49.9134 242.227 49.2202 243.035 48.7881C242.892 48.6454 242.774 48.5271 242.745 48.4415C242.545 48.152 242.256 47.8381 242.227 47.2877C242.227 46.7699 242.227 46.3092 242.399 45.8484C242.57 45.3592 242.945 44.927 243.206 44.6661C243.552 44.348 244.531 44.03 245.224 44.03C245.542 44.03 245.889 44.0586 246.117 44.2013C246.378 44.3725 246.663 44.4337 246.663 44.8047C246.663 44.9759 246.835 45.0942 246.835 45.3225C246.835 45.5263 246.834 45.9585 246.488 46.4478C246.141 46.937 245.942 46.9656 245.766 47.3978C245.595 47.8585 245.073 47.9441 244.698 48.3763C244.584 48.4619 244.527 48.5761 244.38 48.6372C244.812 49.155 245.33 49.2121 245.677 49.473C246.052 49.7625 246.28 50.3374 246.28 50.6554C246.28 50.7125 246.28 50.7696 246.251 50.7981C246.166 51.0305 245.791 51.3159 245.615 51.6054C245.444 51.8949 245.183 52.1803 245.069 52.4697C244.898 52.7878 244.808 53.0161 244.808 53.3341C244.808 53.7092 245.008 54.1128 245.501 54.2555C245.73 54.3126 245.991 54.3412 246.194 54.3412C246.337 54.3412 246.484 54.3412 246.569 54.3126C246.945 54.1414 247.405 54.227 247.638 54.1128C247.927 53.9701 248.302 54.0558 248.616 53.8519C248.759 53.7092 249.595 53.5339 249.742 53.3912C249.941 53.277 250.345 53.1914 250.52 53.1017C250.72 53.0161 250.577 53.0446 251.01 52.8408C251.527 52.5798 251.617 52.5513 251.76 52.4086C251.845 52.3515 251.988 52.2944 252.106 52.2944C252.163 52.2944 252.192 52.2659 252.22 52.2659C252.278 52.2659 252.335 52.2944 252.363 52.323C252.449 52.4086 252.534 52.4657 252.534 52.5554C252.534 52.7592 252.045 52.9019 251.813 53.0446C251.67 53.1302 251.552 53.1588 251.381 53.2444C251.034 53.5339 250.545 53.591 250.084 53.8804C249.998 53.9375 249.362 54.1414 249.362 54.1699C248.959 54.3126 248.755 54.2841 248.698 54.3738C248.527 54.6062 247.458 54.7774 247.14 54.9201C246.936 54.9772 245.265 55.181 244.89 55.181L244.898 55.1892ZM243.948 47.4059C243.948 47.6383 243.976 47.8666 244.034 48.099C245.012 47.4671 245.244 47.1776 245.505 46.8025C245.705 46.3989 245.62 46.2847 245.852 45.8811C245.938 45.7384 245.966 45.6487 245.966 45.563C245.966 45.4203 245.88 45.2736 245.852 45.0738C245.852 44.7843 245.591 44.556 245.334 44.556C245.102 44.5845 244.727 44.7272 244.555 45.0452C244.413 45.3062 244.294 45.3347 244.152 45.5916C244.009 45.824 244.009 46.2847 244.009 46.6313C243.981 46.774 243.952 47.092 243.952 47.41L243.948 47.4059Z" fill="#312F2E"/>
<path d="M260.982 55.6499C260.868 55.6499 260.754 55.6785 260.635 55.6785C260.061 55.6785 259.367 55.5643 258.907 55.4461C258.389 55.2748 258.042 54.9853 257.839 54.7244C257.61 54.4064 257.145 53.9171 257.145 53.542C257.117 53.1669 257.031 52.6777 257.031 52.3597C257.031 52.1599 257.174 52.0416 257.203 51.5809C257.203 51.2058 257.549 50.6309 257.981 50.0805C257.317 50.4556 256.167 50.9163 255.877 51.1202C255.559 51.2914 254.87 51.6095 254.667 51.6951C254.348 51.8378 253.774 52.0416 253.399 52.2414C253.17 52.3556 252.881 52.4453 252.677 52.5594C252.591 52.588 252.302 52.7307 252.216 52.7307C252.016 52.7307 251.812 52.6165 251.812 52.4697C251.812 52.3556 252.012 52.2985 252.216 52.1803C252.302 52.0661 252.416 52.0661 252.534 52.009C252.795 51.9805 253.17 51.8092 253.227 51.7195C253.313 51.6054 253.863 51.4015 254.324 51.1732C254.524 51.0876 254.96 50.9408 255.188 50.7696C255.392 50.6269 255.767 50.5086 256.053 50.3659C256.399 50.1947 256.485 50.2803 256.831 50.0764C257.264 49.8155 259.021 48.8655 259.743 48.519C260.868 47.9726 261.243 47.7973 261.789 47.5975C262.05 47.5119 262.364 47.4548 262.682 47.4548C262.972 47.4548 263.229 47.4834 263.432 47.5405C263.779 47.6832 263.922 48.1439 263.922 48.4904C263.922 48.8655 263.693 49.2406 263.432 49.5301C263.114 49.9623 262.482 50.5086 262.022 50.8266C261.475 51.2017 261.015 51.5198 260.407 51.8337C260.032 52.0661 259.543 52.2373 259.225 52.323C259.225 52.4942 259.282 52.6695 259.282 52.8693C259.339 53.1588 259.628 53.909 259.828 54.1088C260.089 54.3411 260.375 54.3982 260.521 54.4838C260.635 54.5409 261.1 54.5695 261.5 54.5695C262.535 54.5695 262.972 54.5124 263.171 54.4268C263.575 54.3126 264.093 54.2229 264.268 54.1088C264.615 53.9661 264.961 54.0517 265.275 53.8478C265.418 53.7051 266.282 53.4727 266.486 53.3586C266.629 53.2444 267.004 53.1873 267.208 53.0976C267.379 53.012 267.265 53.0405 267.64 52.8367C267.783 52.7796 267.987 52.694 268.072 52.6369C268.186 52.5798 268.419 52.4045 268.447 52.376C268.561 52.3189 268.708 52.2618 268.851 52.2618C268.937 52.2618 269.022 52.2903 269.112 52.3474C269.169 52.433 269.197 52.4901 269.197 52.5472C269.197 52.6614 269.112 52.7184 269.083 52.7511C268.912 52.8367 268.48 53.0405 268.48 53.0405C268.366 53.1547 268.133 53.2403 268.048 53.3586C267.644 53.6195 267.24 53.591 266.78 53.8764C266.551 54.0191 266.262 54.1088 266.03 54.1658C265.654 54.3085 265.336 54.3371 265.279 54.3982C265.137 54.6592 264.183 54.8875 263.808 55.0016C263.518 55.1729 262.364 55.4909 260.982 55.6377V55.6499ZM259.339 51.7277C259.685 51.6135 260.118 51.4097 260.346 51.267C260.807 50.9204 261.296 50.6024 261.414 50.5168C261.557 50.3741 262.279 49.5953 262.393 49.42C262.535 49.2488 262.654 48.9308 262.654 48.6984C262.654 48.6127 262.539 48.47 262.336 48.47C262.221 48.47 262.075 48.5271 261.903 48.6413C261.443 48.9878 261.096 49.2773 260.896 49.4771C260.493 49.8522 259.771 50.5739 259.457 51.3811C259.372 51.5524 259.372 51.6135 259.343 51.7277H259.339Z" fill="#312F2E"/>
<path d="M276.891 55.2464C276.573 55.7642 275.941 56.1107 275.709 56.3146C275.48 56.5429 275.162 56.7467 274.787 56.8324C274.559 56.9465 273.923 57.0036 273.491 57.0036C273.405 57.0036 272.855 57.0036 272.365 56.7427C271.848 56.4817 271.729 56.5103 271.587 56.0496C271.53 55.8172 271.472 55.6745 271.472 55.5318C271.472 55.3891 271.53 55.2994 271.644 55.1852C271.876 54.9854 272.28 54.8101 272.651 54.6959C272.94 54.6389 273.686 54.435 274.033 54.4065C274.465 54.4065 274.869 54.3494 275.011 54.3208C275.04 54.2923 275.24 54.2923 275.444 54.2638C275.415 54.0314 275.329 53.803 275.329 52.9387C275.329 52.6777 275.329 52.3923 275.244 52.1885C275.073 51.8419 275.158 51.0347 275.016 50.4312C274.987 50.26 274.987 50.0561 274.93 49.8278C274.697 50.0276 274.441 50.2029 274.294 50.26C273.976 50.4639 272.822 50.9246 272.537 51.1244C272.19 51.2956 271.53 51.6136 271.297 51.6992L269.307 52.5636C269.279 52.5921 268.989 52.7348 268.847 52.7348C268.704 52.7348 268.5 52.6207 268.472 52.4739C268.472 52.3597 268.614 52.3026 268.847 52.1844C268.989 52.0703 269.047 52.0703 269.165 52.0132C269.454 51.9846 269.829 51.8134 269.858 51.7237C269.944 51.6095 270.522 51.3486 270.955 51.1774L271.819 50.7737C272.08 50.6881 272.394 50.5128 272.683 50.3701C273.058 50.1988 273.173 50.313 273.462 50.0806C273.633 49.995 274.269 49.5913 274.873 49.2162C274.844 48.9268 274.816 48.6128 274.816 48.3519C274.816 48.0909 274.844 47.8912 274.873 47.8055C274.958 47.459 275.248 47.0268 275.248 46.8841C275.248 46.3663 275.509 46.1054 276.027 45.5876C276.43 45.1554 277.755 44.8088 278.13 44.8088C278.448 44.8088 278.734 45.1839 278.824 45.3266C278.909 45.4979 279.056 45.7303 279.056 45.9912C279.056 46.1339 279.027 46.2522 278.942 46.4519C278.856 46.7129 278.713 46.8841 278.538 47.088C278.338 47.3163 278.22 47.6343 278.049 47.7811C277.817 47.9238 277.356 48.2418 277.185 48.4457C277.099 48.5313 277.013 48.6169 276.867 48.7066C276.867 49.3426 276.924 50.1785 277.185 50.8104C277.327 51.0999 277.356 51.3853 277.356 52.8857C277.356 53.2608 277.327 53.6359 277.242 54.0395C277.531 54.0395 277.731 54.0395 277.817 54.011C278.249 53.9539 278.652 53.8968 278.824 53.8397C279.17 53.7256 279.488 53.8683 279.831 53.6359C279.973 53.5503 280.899 53.4646 281.07 53.3749C281.274 53.2608 281.649 53.2322 281.849 53.1425C282.02 53.0569 282.11 53.114 282.513 52.9101C282.628 52.8531 283.178 52.6777 283.264 52.6492C283.349 52.5921 283.582 52.535 283.667 52.4168C283.781 52.3597 283.957 52.2741 284.099 52.2741C284.185 52.2741 284.271 52.3026 284.332 52.3597C284.417 52.4454 284.446 52.5024 284.446 52.5595C284.446 52.6737 284.332 52.7308 284.303 52.7634C284.132 52.849 283.7 53.0528 283.7 53.0528C283.586 53.167 283.182 53.167 283.064 53.2526C282.575 53.5706 281.91 53.799 281.335 53.8887L280.471 54.0314C280.067 54.0884 279.806 54.1455 279.721 54.2311C279.488 54.435 278.192 54.5206 277.099 54.6633C277.042 54.9243 276.956 55.0955 276.899 55.2382L276.891 55.2464ZM275.276 54.9283C274.066 55.1281 272.883 55.1281 272.422 55.4747C272.337 55.5603 272.28 55.6459 272.28 55.7356C272.28 55.8253 272.337 55.8783 272.422 55.968C272.651 56.1107 273.315 56.1678 273.719 56.1678C274.18 56.1393 274.498 56.0536 274.844 55.7071C275.044 55.5073 275.162 55.1893 275.276 54.9283ZM276.834 47.8382C277.266 47.4631 277.641 47.088 277.755 46.9738C277.988 46.6843 278.245 46.2807 278.245 45.8485C278.245 45.7629 278.159 45.7344 278.073 45.7344C277.931 45.7344 277.727 45.7914 277.584 45.9056C277.238 46.1665 277.005 46.7129 276.891 47.0023C276.862 47.088 276.834 47.4345 276.834 47.8382Z" fill="#312F2E"/>
<path d="M286.55 51.6993L284.56 52.5637C284.532 52.5922 284.242 52.7349 284.1 52.7349C283.957 52.7349 283.753 52.6208 283.725 52.474C283.725 52.3598 283.867 52.3028 284.1 52.1845C284.242 52.0704 284.299 52.0704 284.418 52.0133C284.707 51.9847 285.082 51.8135 285.111 51.7238C285.196 51.6096 285.775 51.3487 286.208 51.1775L287.072 50.7738C287.333 50.6882 287.679 50.5414 287.936 50.3702C288.34 50.256 288.426 50.3131 288.715 50.0807C288.772 50.0236 289.29 49.7341 289.869 49.4773C289.955 49.3346 290.012 49.2163 290.012 49.1878C290.273 48.8698 290.529 48.4661 290.705 48.1522C290.876 47.8056 291.194 47.5488 291.308 47.3164C291.422 47.0555 291.598 46.7415 291.797 46.4235C291.598 46.452 291.422 46.4806 291.251 46.4806C291.137 46.4806 291.023 46.452 290.962 46.452C290.9 46.452 290.819 46.4235 290.762 46.4235C290.472 46.4235 290.215 46.5377 290.012 46.6844C289.812 46.7986 289.608 46.8557 289.233 46.8557C289 46.8557 288.54 46.8271 288.54 46.452C288.54 46.134 289.204 45.6733 289.575 45.6733C289.808 45.6733 290.297 45.816 290.758 45.816C291.047 45.816 292.14 45.7589 292.14 45.7589C292.254 45.5877 292.34 45.3838 292.486 45.2697C292.776 44.9802 293.151 44.5765 293.294 44.2911C293.408 44.0873 293.669 43.7733 293.958 43.5124C294.158 43.2515 294.708 42.9946 295.141 42.7907C295.487 42.591 295.658 42.3871 295.976 42.3015C296.034 42.3015 296.091 42.2729 296.148 42.2729C296.466 42.2729 296.723 42.4768 296.723 42.6766C296.694 42.909 296.58 43.1088 296.233 43.28C295.887 43.5124 295.626 43.7978 295.34 44.1729C295.079 44.5195 294.88 44.8089 294.619 45.0658C294.39 45.237 294.476 45.3267 294.39 45.5836C295.255 45.4409 295.976 45.2085 296.205 45.2085C296.405 45.2085 297.273 45.2085 297.444 45.237C297.558 45.237 297.615 45.3227 297.615 45.4368C297.615 45.551 297.558 45.6978 297.416 45.7834C297.273 45.8405 297.126 45.869 296.984 45.869C296.869 45.869 296.751 45.8405 296.637 45.8405C296.376 45.8405 296.319 45.8405 296.029 45.9261C295.683 46.0117 295.336 46.0402 293.983 46.2156C293.897 46.448 293.84 46.5621 293.493 46.9087C293.033 47.4265 293.004 47.6589 292.8 48.034C292.572 48.4091 291.879 49.7912 291.589 50.2234C291.3 50.627 291.072 51.7523 290.811 52.156C290.578 52.5882 290.379 53.0489 290.379 53.6278C290.379 53.742 290.379 53.8602 290.407 54.0029C290.436 54.2924 290.782 54.5778 291.214 54.5778C291.589 54.5778 291.993 54.378 292.34 54.378C292.8 54.2639 293.204 54.2353 293.379 54.1171C293.669 53.9458 294.072 54.06 294.386 53.8561C294.529 53.7134 295.422 53.4811 295.569 53.3669C295.711 53.2527 296.115 53.1956 296.29 53.106C296.49 53.0203 296.319 53.0489 296.751 52.845C297.24 52.6167 297.387 52.4985 297.53 52.4128C297.644 52.3272 297.819 52.2701 297.962 52.2701C298.048 52.2701 298.133 52.2987 298.194 52.3558C298.252 52.4414 298.28 52.4985 298.28 52.5555C298.28 52.6697 298.194 52.7268 298.166 52.7594C298.023 52.845 297.562 53.0489 297.562 53.0489C297.448 53.163 297.273 53.2487 297.13 53.3669C296.755 53.6278 296.294 53.5993 295.834 53.8847C295.634 54.0274 295.316 54.1171 295.141 54.1742C294.708 54.3169 294.448 54.3454 294.39 54.4066C294.187 54.6675 293.237 54.7817 292.89 54.9244C292.601 55.01 291.793 55.2709 291.361 55.328C290.986 55.3565 290.782 55.646 290.122 55.6746C289.518 55.6746 288.74 55.4136 288.536 55.1853C288.336 54.9244 288.307 54.4922 288.307 54.0885C288.336 53.6849 288.479 52.7064 288.682 52.474C288.882 52.2416 288.943 51.7523 289.058 51.5526C289.172 51.4384 289.347 50.8309 289.547 50.256C289.229 50.4599 288.075 50.9206 287.79 51.1204C287.443 51.2916 286.782 51.6096 286.55 51.6953V51.6993Z" fill="#312F2E"/>
</svg>
